<svg viewBox="0 0 90 90" xmlns="http://www.w3.org/2000/svg"><g fill="none" fill-rule="evenodd"><path fill="#2E303B" d="M0 0h90v90H0z"/><path d="M52.182 18H37.82c-1.45 0-2.336.553-2.888 2.025l-.067.188-21.538 47.912c-.77 1.798-.174 2.812 1.734 2.872l.183.003h12.654c1.446 0 2.332-.553 2.854-1.95l.066-.187.032-.084 14.153-31.46 14.146 31.46.032.083c.492 1.474 1.335 2.086 2.733 2.135L62.1 71h12.655c1.988 0 2.667-.959 1.991-2.696l-.067-.165-21.548-47.926-.032-.083c-.489-1.465-1.337-2.078-2.732-2.127L52.182 18Z" fill="#00BAFC" fill-rule="nonzero"/></g></svg>